<svg id="visual" viewBox="0 0 3840 2160" width="3840" height="2160" xmlns="http://www.w3.org/2000/svg" xmlns:xlink="http://www.w3.org/1999/xlink" version="1.1"><rect x="0" y="0" width="3840" height="2160" fill="#29292b"></rect><path d="M0 1570L80 1613.3C160 1656.7 320 1743.3 480 1785.3C640 1827.3 800 1824.7 960 1839.5C1120 1854.3 1280 1886.7 1440 1840.5C1600 1794.3 1760 1669.7 1920 1652.8C2080 1636 2240 1727 2400 1778.3C2560 1829.7 2720 1841.3 2880 1810.8C3040 1780.3 3200 1707.7 3360 1657.2C3520 1606.7 3680 1578.3 3760 1564.2L3840 1550L3840 2161L3760 2161C3680 2161 3520 2161 3360 2161C3200 2161 3040 2161 2880 2161C2720 2161 2560 2161 2400 2161C2240 2161 2080 2161 1920 2161C1760 2161 1600 2161 1440 2161C1280 2161 1120 2161 960 2161C800 2161 640 2161 480 2161C320 2161 160 2161 80 2161L0 2161Z" fill="#ee94a9" stroke-linecap="round" stroke-linejoin="miter"></path></svg>