<svg id="visual" viewBox="0 0 3840 2160" width="3840" height="2160" xmlns="http://www.w3.org/2000/svg" xmlns:xlink="http://www.w3.org/1999/xlink" version="1.1"><rect x="0" y="0" width="3840" height="2160" fill="#29292b"></rect><path d="M0 1547L91.5 1502.2C183 1457.3 366 1367.7 548.8 1405.8C731.7 1444 914.3 1610 1097.2 1602.3C1280 1594.7 1463 1413.3 1645.8 1383C1828.7 1352.7 2011.3 1473.3 2194.2 1561.7C2377 1650 2560 1706 2742.8 1745.5C2925.7 1785 3108.3 1808 3291.2 1766.8C3474 1725.7 3657 1620.3 3748.5 1567.7L3840 1515L3840 2161L3748.5 2161C3657 2161 3474 2161 3291.2 2161C3108.3 2161 2925.7 2161 2742.8 2161C2560 2161 2377 2161 2194.2 2161C2011.3 2161 1828.7 2161 1645.8 2161C1463 2161 1280 2161 1097.2 2161C914.3 2161 731.7 2161 548.8 2161C366 2161 183 2161 91.5 2161L0 2161Z" fill="#ee94a9" stroke-linecap="round" stroke-linejoin="miter"></path></svg>