<svg id="visual" viewBox="0 0 3840 2160" width="3840" height="2160" xmlns="http://www.w3.org/2000/svg" xmlns:xlink="http://www.w3.org/1999/xlink" version="1.1"><rect x="0" y="0" width="3840" height="2160" fill="#29292b"></rect><path d="M0 2101L80 2080C160 2059 320 2017 480 2016.2C640 2015.3 800 2055.7 960 2074.7C1120 2093.7 1280 2091.3 1440 2086.7C1600 2082 1760 2075 1920 2021.8C2080 1968.7 2240 1869.3 2400 1816.5C2560 1763.7 2720 1757.3 2880 1820.2C3040 1883 3200 2015 3360 2030C3520 2045 3680 1943 3760 1892L3840 1841L3840 2161L3760 2161C3680 2161 3520 2161 3360 2161C3200 2161 3040 2161 2880 2161C2720 2161 2560 2161 2400 2161C2240 2161 2080 2161 1920 2161C1760 2161 1600 2161 1440 2161C1280 2161 1120 2161 960 2161C800 2161 640 2161 480 2161C320 2161 160 2161 80 2161L0 2161Z" fill="#ee94a9" stroke-linecap="round" stroke-linejoin="miter"></path></svg>